<?xml version="1.0" standalone="no"?>
<!DOCTYPE svg PUBLIC "-//W3C//DTD SVG 20010904//EN"
 "http://www.w3.org/TR/2001/REC-SVG-20010904/DTD/svg10.dtd">
<svg version="1.0" xmlns="http://www.w3.org/2000/svg"
 width="2550.000000pt" height="962.000000pt" viewBox="0 0 2550.000000 962.000000"
 preserveAspectRatio="xMidYMid meet">

<g transform="translate(0.000000,962.000000) scale(0.100000,-0.100000)"
fill="#000000" stroke="none">
<path d="M10625 8751 c-16 -7 -11 -10 28 -16 90 -14 142 -86 135 -186 -7 -99
-75 -163 -166 -157 l-47 3 -3 159 c-1 97 -7 165 -13 173 -7 7 -26 13 -43 13
l-32 0 4 -269 c5 -283 -1 -331 -39 -351 -10 -6 -19 -15 -19 -20 0 -12 207 -13
214 -1 3 4 -12 15 -34 24 l-40 15 0 111 0 111 85 0 c101 0 132 13 174 71 101
139 30 298 -144 323 -22 3 -49 1 -60 -3z"/>
<path d="M11895 8750 c-17 -7 -16 -9 10 -15 110 -25 188 -87 234 -185 34 -74
36 -206 3 -290 -25 -64 -96 -146 -132 -152 -22 -4 -23 -6 -7 -12 12 -6 24 -3
36 8 10 9 25 16 35 16 26 0 109 84 141 142 36 67 47 190 22 262 -40 116 -133
197 -253 220 -38 7 -78 10 -89 6z"/>
<path d="M12565 8751 c-16 -7 -11 -10 26 -16 63 -10 104 -36 129 -84 41 -81
13 -198 -54 -226 -20 -8 -52 -15 -73 -16 l-38 -1 44 -15 c38 -14 50 -26 101
-107 93 -145 108 -165 143 -186 17 -11 45 -20 60 -20 l29 0 -39 44 c-21 24
-68 95 -104 158 l-66 115 50 52 49 52 -4 67 c-4 80 -27 119 -91 156 -46 27
-130 41 -162 27z"/>
<path d="M15125 8751 c-16 -7 -11 -10 25 -16 25 -4 57 -14 72 -21 99 -51 103
-241 5 -287 -19 -9 -44 -17 -54 -17 -34 0 -35 -13 -1 -24 27 -9 46 -32 103
-123 99 -157 117 -173 200 -188 l40 -8 -41 41 c-39 39 -184 265 -184 288 0 5
18 28 40 49 50 49 65 97 49 160 -16 61 -61 107 -132 133 -61 23 -89 26 -122
13z"/>
<path d="M8360 8730 l-255 -5 -9 -37 c-13 -50 -2 -57 34 -23 27 26 35 28 113
29 58 1 89 -3 100 -13 15 -12 17 -43 17 -263 l0 -250 -29 -29 c-16 -16 -38
-29 -48 -30 -16 0 -16 -1 2 -9 25 -11 181 -11 215 0 14 4 18 8 9 9 -9 1 -28
10 -43 22 l-26 21 2 266 3 267 75 5 c91 7 133 -3 160 -37 l20 -26 0 41 c0 48
-21 73 -58 70 -15 -1 -142 -5 -282 -8z"/>
<path d="M12422 8732 c-10 -7 -10 -15 -2 -36 6 -16 10 -130 10 -282 l0 -255
-25 -24 c-13 -14 -30 -25 -37 -26 -7 0 -4 -4 7 -9 24 -10 170 -11 205 -1 25 8
25 8 -7 15 -17 4 -36 13 -41 19 -26 34 -20 246 7 255 16 5 13 22 -3 22 -21 0
-26 33 -26 188 l0 142 -37 0 c-21 0 -44 -4 -51 -8z"/>
<path d="M14976 8731 c-3 -5 -1 -22 4 -38 6 -17 9 -132 8 -288 l-3 -259 -32
-22 c-18 -12 -29 -24 -26 -28 10 -9 206 -7 222 3 10 7 5 11 -18 16 -50 11 -61
37 -61 145 0 99 6 117 45 138 19 11 18 11 -6 12 -15 0 -30 7 -33 16 -3 9 -6
83 -6 165 l0 149 -44 0 c-25 0 -47 -4 -50 -9z"/>
<path d="M16400 8720 c-11 -11 -22 -32 -26 -47 -13 -52 -177 -508 -191 -530
-8 -12 -25 -25 -36 -29 -22 -7 -22 -7 -2 -15 25 -9 149 -11 158 -2 4 3 -7 14
-23 24 -17 11 -30 25 -30 34 0 32 63 211 78 223 18 14 159 17 180 3 7 -4 31
-56 52 -116 44 -120 42 -138 -12 -151 -29 -6 -30 -8 -13 -15 24 -9 177 -12
199 -3 14 5 10 12 -18 38 -29 27 -47 66 -131 301 -53 149 -104 278 -113 288
-20 23 -47 22 -72 -3z m51 -154 c16 -35 31 -77 32 -93 2 -28 1 -28 -57 -31
-72 -4 -82 4 -66 55 17 51 51 133 57 133 2 0 18 -29 34 -64z"/>
<path d="M8835 8705 l25 -24 0 -266 0 -266 -25 -25 c-14 -14 -25 -27 -25 -29
0 -8 154 -4 175 4 19 8 19 8 -2 15 -32 10 -46 67 -42 175 3 68 8 94 19 101 8
5 88 10 177 10 200 0 193 5 193 -125 0 -112 -10 -142 -50 -156 -54 -19 -32
-29 64 -29 124 0 134 4 96 40 l-30 28 0 255 0 255 26 31 26 31 -106 0 c-64 0
-106 -4 -106 -10 0 -5 9 -10 20 -10 11 0 29 -9 40 -20 17 -17 20 -33 20 -119
0 -55 -3 -106 -6 -115 -5 -14 -32 -16 -190 -16 l-183 0 -7 35 c-3 19 -5 70 -3
114 3 63 9 86 27 110 l23 31 -90 0 -90 0 24 -25z"/>
<path d="M9604 8717 c65 -42 61 -21 64 -294 3 -280 0 -291 -61 -308 -21 -6
-35 -14 -31 -18 11 -10 446 -8 463 2 8 5 16 32 18 62 4 54 4 54 -13 28 -28
-44 -53 -53 -155 -57 -140 -6 -139 -7 -139 131 0 75 4 117 12 125 15 15 136
16 173 2 14 -5 30 -22 37 -37 l11 -28 8 35 c9 37 3 120 -9 120 -4 0 -13 -9
-20 -20 -11 -19 -21 -20 -110 -18 l-97 3 0 120 0 120 107 3 c103 3 107 2 126
-23 28 -35 34 -32 30 18 l-3 42 -215 2 c-171 2 -211 0 -196 -10z"/>
<path d="M10985 8718 c11 -6 30 -20 43 -31 22 -20 22 -24 22 -276 0 -141 -4
-261 -8 -267 -11 -17 -48 -34 -74 -34 -18 0 -20 -2 -8 -10 9 -6 113 -10 241
-10 252 0 233 -6 244 76 l6 49 -28 -32 c-37 -43 -69 -53 -164 -53 -121 0 -119
-2 -119 140 l0 120 26 6 c14 4 56 4 92 1 55 -4 70 -9 89 -31 12 -14 25 -26 28
-26 10 0 5 139 -5 145 -5 3 -10 2 -10 -4 0 -5 -7 -17 -16 -25 -12 -12 -37 -16
-109 -16 l-93 0 -8 67 c-3 36 -3 92 2 122 l9 56 45 7 c78 11 161 -2 186 -29
l22 -24 7 21 c4 12 4 32 1 46 l-6 24 -218 0 c-164 -1 -212 -3 -197 -12z"/>
<path d="M11730 8704 c-68 -38 -115 -90 -146 -158 -23 -50 -28 -75 -29 -141 0
-68 4 -89 27 -136 53 -108 139 -169 266 -191 98 -16 128 -1 41 21 -82 21 -143
62 -180 120 -94 147 -81 342 29 442 27 24 57 49 68 56 41 25 -30 13 -76 -13z"/>
<path d="M13061 8704 l24 -26 0 -263 c0 -261 0 -264 -23 -288 -20 -21 -21 -25
-7 -31 22 -8 113 -6 145 3 24 7 25 8 3 15 -11 4 -24 14 -28 24 -4 9 -6 134 -5
276 1 243 2 261 21 287 l20 29 -87 0 -87 0 24 -26z"/>
<path d="M13573 8718 c-5 -7 -40 -103 -77 -213 -94 -277 -122 -348 -151 -375
-14 -13 -25 -27 -25 -32 0 -9 141 -11 165 -2 14 6 11 10 -14 20 -17 7 -34 21
-38 30 -8 22 54 215 75 232 23 18 166 16 185 -3 24 -23 86 -219 76 -238 -5 -8
-24 -19 -42 -23 -28 -6 -29 -8 -12 -15 26 -10 186 -11 202 -1 8 5 2 16 -20 33
-28 23 -45 61 -136 313 l-104 286 -37 0 c-21 0 -42 -6 -47 -12z m76 -194 c32
-84 32 -84 -49 -84 -52 0 -70 3 -70 13 0 17 34 118 50 148 l13 23 18 -23 c10
-12 27 -47 38 -77z"/>
<path d="M14495 8721 c-3 -5 -44 -121 -91 -258 -92 -264 -123 -337 -149 -347
-52 -19 77 -37 144 -19 23 6 22 6 -8 19 -17 7 -34 20 -37 29 -6 15 46 195 65
225 13 19 159 27 189 11 23 -12 86 -186 80 -223 -2 -14 -16 -29 -35 -39 l-33
-16 38 -7 c47 -7 140 -8 168 0 21 5 20 7 -12 37 -27 27 -46 69 -113 257 -132
373 -116 340 -161 340 -21 0 -41 -4 -45 -9z m70 -186 c15 -40 24 -78 20 -84
-10 -16 -124 -14 -131 2 -3 8 5 40 17 73 12 32 26 70 31 83 13 35 32 13 63
-74z"/>
<path d="M15590 8720 c0 -5 5 -10 10 -10 6 0 22 -11 35 -25 l25 -24 0 -248 c0
-279 -2 -287 -68 -299 -75 -14 2 -23 219 -23 155 -1 218 2 227 11 7 7 12 32
12 58 l0 45 -23 -27 c-31 -38 -65 -48 -160 -48 -123 0 -127 4 -127 140 0 131
3 134 115 128 54 -2 79 -8 94 -22 25 -23 27 -21 35 24 9 50 -4 66 -41 51 -17
-7 -64 -11 -114 -9 l-84 3 -3 110 c-1 61 2 117 7 125 8 11 31 14 106 13 85 -1
100 -4 120 -23 l24 -23 7 27 c14 56 13 56 -211 56 -130 0 -205 -4 -205 -10z"/>
<path d="M3043 7589 c-101 -9 -250 -49 -338 -88 -153 -70 -258 -161 -319 -276
-30 -58 -31 -64 -31 -185 0 -118 2 -128 29 -185 57 -117 204 -225 371 -274 39
-11 103 -29 143 -41 43 -12 72 -26 72 -34 0 -8 -27 -69 -59 -137 -77 -161 -94
-239 -89 -402 6 -185 53 -292 183 -422 80 -80 154 -120 283 -155 71 -19 100
-22 210 -17 264 10 491 110 696 307 103 99 163 179 211 282 43 94 58 182 53
311 -3 89 -7 110 -33 162 -50 101 -117 130 -280 123 -118 -6 -179 -26 -289
-98 -205 -134 -346 -348 -346 -526 0 -102 26 -134 110 -134 55 0 91 33 97 90
10 89 -21 116 -111 97 -55 -11 -62 1 -42 65 24 73 74 145 169 245 175 182 383
269 526 218 192 -67 216 -300 57 -561 -172 -283 -433 -479 -719 -539 -178 -38
-383 8 -498 112 -148 134 -172 390 -60 660 40 97 149 291 169 302 10 4 74 11
144 14 220 11 417 52 665 138 203 70 289 108 419 184 108 64 109 64 149 -15
28 -55 51 -135 60 -207 7 -55 17 -66 34 -35 19 36 -6 150 -54 250 -25 52 -45
95 -45 98 0 2 21 27 46 55 55 62 74 103 74 160 0 84 -98 138 -265 144 -44 2
-109 0 -144 -5 l-64 -9 -166 90 c-266 143 -445 203 -703 234 -135 16 -186 17
-315 4z m355 -89 c122 -13 354 -69 458 -110 110 -44 274 -122 274 -130 0 -15
-27 -27 -82 -38 -78 -15 -311 -104 -433 -165 -206 -102 -382 -238 -523 -401
-96 -111 -87 -109 -236 -70 -118 31 -227 79 -296 129 -103 75 -167 208 -156
319 9 86 39 141 125 227 195 195 498 278 869 239z m1167 -271 c52 -15 105 -68
105 -106 0 -40 -85 -163 -113 -163 -5 0 -67 59 -138 131 -117 120 -126 131
-106 139 32 13 205 12 252 -1z m-332 -30 c80 -42 267 -230 267 -269 0 -18 -16
-29 -132 -96 -186 -106 -517 -221 -753 -260 -172 -29 -334 -45 -353 -35 -26
15 112 173 262 299 173 145 429 293 601 348 85 27 81 27 108 13z"/>
<path d="M14276 7500 c-161 -34 -319 -127 -477 -280 -69 -66 -89 -92 -89 -113
0 -15 4 -27 8 -27 5 0 40 34 77 77 167 185 351 290 568 323 140 21 307 -26
378 -107 16 -19 29 -37 29 -42 0 -11 -44 -28 -93 -37 -60 -10 -287 -128 -375
-194 -187 -141 -316 -288 -398 -455 -67 -137 -83 -303 -39 -413 43 -106 184
-166 336 -143 273 43 556 309 681 642 29 78 32 96 36 236 4 136 2 160 -18 225
-21 69 -21 73 -4 85 10 7 32 11 49 8 16 -2 71 -7 120 -10 146 -10 668 -124
696 -152 6 -6 -20 -27 -73 -58 -221 -128 -445 -348 -642 -632 -61 -87 -85
-103 -160 -103 -48 0 -107 -25 -154 -65 -41 -34 -68 -83 -54 -97 7 -7 27 6 61
41 28 28 70 60 93 71 50 23 108 26 108 7 0 -17 -158 -251 -245 -362 -93 -119
-265 -292 -344 -345 -154 -103 -323 -160 -477 -160 -117 0 -180 13 -270 56
-124 59 -195 146 -197 241 0 60 17 76 33 29 13 -40 35 -56 77 -56 84 0 138
136 78 195 -19 20 -34 25 -76 25 -95 0 -153 -72 -152 -190 0 -114 67 -209 190
-269 102 -51 159 -61 344 -61 154 0 177 2 286 30 228 59 471 198 625 358 70
73 106 124 204 288 l119 199 55 -3 c31 -2 61 -9 70 -18 13 -13 12 -20 -10 -61
-40 -77 -105 -158 -144 -182 -39 -25 -39 -41 1 -41 69 0 149 68 205 176 47 88
60 100 128 108 139 17 210 68 210 151 0 64 -26 85 -104 85 -97 0 -179 -53
-223 -146 -9 -18 -23 -36 -31 -39 -22 -8 -122 16 -122 30 0 38 220 375 325
498 75 88 237 226 300 257 53 26 71 25 240 -4 375 -66 635 -64 843 5 82 27
142 82 142 129 0 88 -141 140 -381 140 -207 0 -333 -22 -563 -97 l-78 -25 -77
17 c-42 9 -130 30 -196 46 -205 49 -400 79 -510 79 -98 -1 -299 -21 -341 -35
-18 -5 -32 3 -72 43 -68 67 -129 101 -220 123 -96 23 -191 22 -306 -1z m2581
-208 c73 -23 123 -56 123 -82 0 -44 -116 -96 -237 -106 -54 -4 -121 1 -220 15
-149 21 -402 77 -417 91 -12 12 140 59 284 86 159 30 367 28 467 -4z m-2033
-45 c9 -12 22 -52 31 -89 39 -169 -27 -402 -178 -628 -69 -104 -265 -296 -344
-338 -79 -41 -205 -74 -252 -66 -138 25 -223 148 -206 299 18 174 106 325 293
507 150 146 328 254 507 309 111 34 131 35 149 6z m769 -809 c9 -7 19 -25 23
-41 5 -23 1 -33 -29 -61 -48 -45 -149 -70 -186 -47 -38 24 84 161 143 161 18
0 40 -6 49 -12z"/>
<path d="M22566 7065 c-68 -24 -167 -100 -283 -217 -61 -62 -124 -129 -141
-148 -56 -67 -178 -236 -235 -327 -32 -51 -66 -94 -75 -97 -10 -3 -43 -8 -75
-11 -84 -7 -92 -19 -17 -25 54 -4 65 -8 64 -22 -2 -20 -150 -297 -201 -375
-19 -29 -57 -69 -84 -89 -54 -39 -63 -58 -24 -48 19 5 25 2 25 -11 0 -21 -216
-400 -307 -540 -74 -113 -224 -269 -318 -330 -116 -76 -260 -115 -347 -95 -63
14 -78 13 -78 -9 0 -16 10 -20 58 -26 166 -19 367 53 549 197 289 229 491 505
795 1093 66 127 124 236 130 243 7 8 48 12 135 12 95 0 124 3 120 13 -3 8 -27
11 -84 9 -61 -2 -83 1 -92 12 -10 12 10 31 126 117 227 169 418 368 475 495
29 66 31 160 4 180 -25 18 -69 17 -120 -1z m109 -35 c23 -26 16 -51 -43 -141
-89 -136 -276 -329 -468 -482 -67 -54 -94 -68 -94 -49 0 10 193 328 252 415
107 160 237 272 319 276 9 1 24 -8 34 -19z"/>
<path d="M20368 6963 c-8 -10 -32 -49 -53 -88 -78 -142 -480 -814 -554 -925
-142 -215 -311 -409 -418 -479 -55 -37 -62 -38 -92 -10 -19 18 -22 29 -18 63
8 59 109 244 320 589 94 154 95 144 -14 143 l-91 -1 -28 -35 -28 -34 -15 36
c-18 44 -54 54 -144 43 -76 -9 -139 -34 -248 -96 -131 -74 -231 -154 -299
-239 -134 -165 -218 -232 -291 -232 -37 0 -85 32 -85 57 0 6 45 83 99 172 104
168 131 228 131 293 0 34 -4 41 -24 46 -35 8 -66 -3 -104 -40 -87 -81 -152
-244 -152 -378 0 -97 6 -87 -131 -241 -118 -132 -153 -157 -226 -157 -45 0
-55 4 -69 25 -32 49 0 116 235 498 84 137 156 257 158 268 5 18 -1 19 -85 19
-60 0 -95 -4 -102 -12 -6 -7 -61 -94 -122 -193 -60 -99 -142 -222 -181 -275
-89 -118 -269 -301 -321 -325 -48 -22 -85 -12 -104 28 -22 46 11 113 287 566
61 100 111 189 111 196 0 19 -176 14 -194 -6 -7 -8 -65 -102 -129 -209 -148
-251 -221 -353 -332 -465 -106 -106 -162 -138 -203 -114 -40 22 -49 58 -28
112 27 72 357 642 385 665 9 7 47 12 103 12 52 0 88 4 88 10 0 10 -28 15 -65
11 -35 -4 -83 9 -88 23 -3 8 28 69 68 137 41 67 72 126 69 131 -6 9 -144 11
-168 2 -9 -3 -52 -66 -96 -139 -44 -73 -87 -136 -97 -139 -9 -4 -43 -9 -75
-13 -71 -7 -77 -23 -8 -23 35 0 52 -5 56 -14 3 -8 -37 -86 -88 -173 -169 -284
-160 -265 -147 -318 15 -59 6 -144 -21 -200 -25 -51 -18 -76 28 -99 50 -25 89
-28 149 -11 50 15 68 28 161 121 57 57 105 104 107 104 1 0 5 -31 7 -70 6
-110 57 -163 156 -163 86 0 144 35 263 162 l99 105 0 -66 c0 -104 27 -153 105
-189 121 -56 219 -1 416 231 45 53 48 54 70 41 71 -43 79 -45 134 -27 29 9 72
30 96 46 24 16 47 30 50 30 4 0 8 -44 11 -98 3 -83 7 -104 30 -142 40 -69 80
-94 153 -94 96 1 144 34 280 197 26 31 51 57 56 57 5 0 9 -29 9 -65 0 -110 39
-172 117 -189 81 -18 174 39 298 183 44 50 82 91 85 91 3 0 6 -40 6 -88 -1
-78 2 -93 24 -125 32 -47 60 -61 118 -61 69 0 117 28 208 119 101 102 296 359
288 380 -4 8 -7 15 -9 15 -1 0 -35 -44 -76 -97 -199 -266 -342 -404 -404 -389
-67 17 -52 95 51 281 69 123 120 210 502 852 122 205 222 379 222 388 0 24
-161 22 -182 -2z m-1040 -739 c32 -22 29 -83 -7 -159 -96 -204 -385 -557 -499
-611 -34 -16 -37 -16 -69 1 -59 32 -63 111 -12 224 92 202 357 500 486 547 50
17 74 17 101 -2z"/>
<path d="M11303 6595 c-58 -25 -95 -141 -57 -179 33 -34 128 -8 167 45 27 38
34 110 12 132 -20 21 -78 22 -122 2z"/>
<path d="M17704 6591 c-40 -24 -66 -80 -62 -134 2 -35 7 -43 29 -51 71 -24
160 33 174 112 10 62 -12 92 -68 92 -23 0 -56 -8 -73 -19z"/>
<path d="M11808 6543 c-8 -10 -44 -65 -78 -123 -83 -138 -95 -150 -140 -150
-51 0 -100 -11 -100 -21 0 -5 21 -9 48 -9 81 0 83 -7 22 -107 -173 -284 -286
-438 -424 -575 -90 -90 -151 -124 -193 -111 -41 14 -50 51 -29 118 9 30 79
157 155 282 214 355 227 377 234 395 5 15 -4 16 -88 15 -69 -2 -98 -6 -108
-17 -8 -8 -51 -78 -97 -155 -136 -230 -298 -445 -421 -559 -99 -92 -149 -106
-185 -51 -15 24 -14 28 26 107 24 46 82 148 130 228 104 172 114 200 108 291
-9 121 -70 180 -174 165 -72 -9 -117 -40 -215 -146 -51 -55 -97 -100 -101
-100 -4 0 -8 36 -8 80 0 151 -68 208 -174 146 -70 -41 -235 -234 -284 -331
-63 -126 -267 -370 -364 -434 -69 -47 -85 -49 -117 -20 -47 44 -18 110 213
493 91 150 168 281 172 290 6 15 -3 16 -92 14 l-98 -3 -125 -210 c-225 -377
-351 -537 -465 -591 -32 -16 -36 -16 -60 0 -71 46 -46 101 312 681 34 54 62
104 62 111 0 9 -26 12 -92 11 l-93 -2 -95 -157 c-59 -98 -102 -159 -115 -163
-11 -3 -63 -65 -115 -137 -108 -149 -266 -316 -325 -343 -34 -16 -42 -16 -65
-4 -33 19 -37 65 -10 118 11 23 59 101 107 173 111 170 135 223 141 310 11
157 -76 244 -208 208 -37 -10 -65 -32 -164 -131 -66 -65 -123 -119 -126 -119
-4 0 -5 29 -3 64 10 119 -53 201 -148 193 -73 -6 -117 -36 -213 -143 -49 -54
-93 -100 -97 -102 -5 -2 -9 38 -9 88 0 87 -1 93 -29 120 -36 37 -72 46 -121
31 -58 -17 -183 -157 -304 -341 -57 -85 -130 -189 -163 -230 -82 -101 -203
-217 -247 -235 -63 -27 -106 8 -91 75 4 16 56 107 117 201 125 194 148 248
148 346 0 145 -82 217 -210 183 -38 -10 -64 -31 -165 -133 l-120 -122 -6 80
c-6 92 -26 137 -72 165 -43 27 -93 25 -154 -5 -50 -25 -78 -51 -177 -168 -54
-63 -71 -62 -60 6 14 89 -21 168 -83 183 -78 20 -158 -45 -319 -260 -126 -167
-150 -194 -226 -253 -66 -50 -76 -73 -20 -44 76 39 144 105 244 239 130 174
234 282 270 282 37 0 43 -27 18 -92 -24 -65 -142 -268 -291 -504 -60 -94 -109
-178 -109 -188 0 -15 11 -16 92 -14 l91 3 106 175 c127 209 191 302 303 434
95 114 161 172 207 186 28 8 36 6 57 -15 22 -22 23 -26 10 -68 -19 -63 -122
-247 -271 -482 -69 -109 -124 -206 -123 -214 3 -13 21 -17 91 -19 l87 -3 18
32 c50 91 340 515 402 587 127 148 232 213 286 177 49 -32 30 -78 -127 -311
-115 -171 -132 -209 -133 -304 -1 -87 19 -138 67 -172 44 -31 117 -30 182 4
93 48 304 295 412 481 51 87 182 247 231 281 21 14 48 26 60 26 19 0 22 -6 22
-38 0 -66 -76 -205 -308 -564 -62 -97 -111 -182 -107 -188 3 -6 44 -10 96 -10
l90 0 17 31 c188 343 496 740 594 767 36 10 66 0 75 -25 18 -46 -67 -212 -278
-545 -65 -103 -119 -197 -119 -208 0 -18 6 -20 83 -20 45 0 87 4 93 8 5 4 28
36 49 72 203 340 445 648 556 706 40 20 92 22 114 4 31 -26 10 -75 -104 -250
-160 -246 -166 -258 -166 -360 0 -67 4 -92 20 -119 32 -54 68 -75 128 -75 90
0 133 29 270 184 67 75 124 133 125 128 2 -5 -1 -23 -7 -40 -15 -43 -14 -142
3 -181 19 -48 68 -85 122 -93 70 -10 111 14 221 133 52 57 99 103 104 103 5 0
9 -29 9 -64 0 -49 5 -70 23 -96 52 -77 123 -98 204 -60 100 48 388 373 431
488 20 52 163 235 222 286 52 43 90 32 90 -26 0 -36 -120 -252 -274 -495 -81
-128 -144 -237 -141 -243 3 -5 46 -10 95 -10 l89 0 57 98 c267 462 521 745
631 706 70 -25 57 -67 -93 -299 -64 -99 -125 -201 -135 -228 -37 -92 -16 -220
42 -261 40 -28 94 -38 138 -26 57 15 153 91 229 182 36 43 67 76 70 73 2 -2 5
-37 6 -77 3 -84 22 -130 68 -158 47 -29 93 -33 156 -15 52 15 67 27 175 136
l117 121 0 -69 c1 -129 55 -196 159 -196 80 0 130 29 238 140 50 52 93 91 96
86 2 -4 5 -35 5 -67 3 -117 84 -182 194 -156 46 11 63 23 126 88 40 41 75 72
78 70 5 -6 -62 -135 -115 -222 -20 -32 -47 -64 -61 -71 -14 -8 -113 -56 -220
-109 -243 -119 -390 -213 -496 -320 -101 -102 -144 -181 -144 -268 0 -74 19
-112 70 -138 96 -49 258 -1 440 129 193 138 344 322 526 640 71 126 72 126
143 166 120 67 229 153 367 290 139 137 194 205 194 238 0 17 -2 18 -17 6 -9
-8 -66 -70 -126 -139 -128 -146 -210 -221 -325 -297 -83 -56 -119 -70 -114
-44 3 16 201 363 354 620 60 101 108 185 106 186 -2 1 -42 5 -91 7 -71 4 -90
1 -101 -11 -7 -9 -62 -99 -121 -201 -122 -209 -140 -237 -241 -370 -116 -153
-218 -239 -269 -226 -33 8 -55 33 -55 62 0 35 77 178 253 464 86 141 159 264
163 273 6 16 -1 17 -90 14 -53 -2 -98 -6 -100 -8 -2 -2 -63 -102 -135 -223
-166 -275 -203 -328 -320 -448 -100 -104 -161 -143 -205 -132 -58 14 -60 75
-8 176 51 99 331 579 350 601 12 14 32 17 98 17 46 0 86 5 89 10 6 10 -19 15
-66 11 -33 -2 -79 15 -79 30 0 7 32 65 71 130 39 65 68 122 64 128 -3 6 -39
11 -84 11 -62 0 -81 -4 -93 -17z m192 -1318 c0 -12 -55 -112 -121 -223 -173
-287 -313 -447 -442 -507 -105 -48 -163 -48 -215 -1 -32 30 -37 41 -37 78 0
58 43 144 108 215 108 117 268 228 532 365 138 71 175 87 175 73z"/>
<path d="M16657 6510 c-33 -26 -67 -83 -105 -175 -20 -51 -59 -108 -141 -210
-125 -156 -135 -165 -168 -165 -80 0 -188 -109 -229 -232 -41 -125 -309 -302
-426 -283 -48 8 -93 45 -107 88 -14 43 7 126 55 217 34 66 62 90 104 90 31 0
310 80 367 106 85 37 139 80 162 127 46 94 13 179 -72 192 -91 14 -183 -9
-322 -79 -285 -144 -417 -301 -417 -496 0 -208 135 -316 332 -266 74 19 102
36 211 122 45 35 85 64 89 64 5 0 11 -15 15 -32 12 -58 53 -117 98 -140 59
-31 225 -30 308 1 187 71 288 210 259 360 -5 27 -32 112 -59 188 -28 76 -53
150 -57 166 -12 52 5 96 59 155 88 96 139 169 135 194 -4 32 -55 36 -91 8z
m-567 -285 c34 -41 -29 -136 -139 -210 -109 -72 -310 -160 -327 -142 -17 16
203 253 293 316 67 46 150 63 173 36z m438 -246 l-3 -194 -40 -80 c-73 -146
-222 -266 -311 -252 -85 14 -152 94 -133 160 23 79 86 133 186 157 57 14 107
71 100 114 -2 17 -7 38 -10 46 -5 10 19 48 69 110 99 124 126 152 137 141 5
-5 7 -96 5 -202z"/>
<path d="M4990 6263 c-46 -8 -184 -81 -273 -144 -117 -83 -207 -182 -255 -277
-35 -72 -37 -81 -37 -171 1 -110 18 -155 79 -209 119 -104 309 -39 461 158 25
32 54 62 65 65 11 4 20 15 20 26 0 11 25 63 56 115 76 127 94 184 94 299 0 82
-2 94 -22 112 -29 25 -48 32 -71 24 -16 -6 -12 -11 20 -31 30 -20 40 -34 47
-68 6 -26 6 -58 0 -80 -8 -33 -13 -38 -49 -43 -53 -7 -76 -21 -109 -63 -63
-83 -79 -155 -51 -224 9 -20 14 -46 11 -58 -9 -33 -145 -168 -206 -203 -80
-45 -121 -55 -164 -37 -19 8 -40 24 -46 37 -21 37 -7 144 29 231 79 188 306
463 416 503 56 20 78 35 53 35 -9 0 -22 2 -30 4 -7 2 -24 1 -38 -1z"/>
<path d="M21160 6217 c-157 -80 -279 -175 -366 -289 -72 -93 -87 -137 -88
-253 -1 -115 16 -160 80 -213 124 -102 307 -39 459 158 25 32 54 62 65 65 11
4 20 15 20 26 0 11 25 60 55 110 79 132 95 181 95 293 0 79 -3 97 -21 120 -15
19 -30 26 -56 26 l-36 0 43 -37 c35 -32 43 -46 47 -83 3 -25 0 -57 -6 -72 -8
-23 -17 -28 -43 -28 -44 0 -87 -28 -121 -78 -55 -79 -68 -145 -42 -210 9 -20
14 -47 11 -58 -3 -12 -41 -58 -84 -102 -75 -77 -156 -129 -224 -146 -36 -8
-93 15 -108 45 -21 37 -7 144 29 231 79 188 306 463 416 503 73 27 76 35 15
35 -45 0 -71 -8 -140 -43z"/>
<path d="M15867 4312 c-11 -12 -23 -77 -41 -230 -14 -117 -33 -271 -42 -343
-16 -122 -16 -132 0 -147 31 -31 48 -4 81 134 44 180 84 249 173 302 l47 27
406 3 c363 3 408 1 423 -13 15 -15 16 -118 16 -1116 0 -769 -3 -1113 -11
-1144 -31 -122 -184 -211 -384 -224 -95 -6 -100 -7 -103 -29 -8 -54 -33 -52
683 -52 365 0 670 3 679 6 10 4 16 18 16 39 l0 32 -102 6 c-214 11 -362 103
-387 242 -11 60 -8 2231 3 2242 4 5 195 8 424 8 411 0 418 0 458 -22 91 -48
146 -152 183 -347 19 -98 37 -124 67 -94 15 15 14 41 -20 353 -20 185 -41 345
-46 356 -14 25 -52 24 -76 -2 -46 -51 7 -49 -1189 -49 -981 0 -1120 2 -1145
15 -17 9 -30 20 -30 25 0 8 -50 40 -63 40 -2 0 -11 -8 -20 -18z"/>
<path d="M23215 4311 c-165 -45 -266 -102 -367 -209 -123 -130 -161 -227 -161
-407 -1 -224 61 -368 237 -554 92 -96 177 -162 441 -341 345 -234 420 -301
517 -462 148 -243 112 -518 -87 -671 -120 -91 -239 -124 -415 -114 -165 10
-279 50 -394 141 -109 85 -210 230 -247 354 -14 48 -58 102 -83 102 -35 0 -35
-32 -5 -297 16 -144 34 -274 39 -289 10 -26 12 -26 58 -19 79 14 123 8 222
-30 197 -75 351 -96 567 -76 174 16 340 73 452 156 125 91 224 223 264 350 19
59 22 92 21 210 0 125 -3 149 -28 225 -52 156 -95 225 -222 359 -107 113 -171
165 -419 341 -256 183 -359 265 -437 349 -118 128 -181 268 -182 406 0 91 33
165 107 239 93 94 206 136 362 136 107 0 184 -18 280 -65 141 -68 246 -176
332 -339 44 -84 50 -91 78 -91 36 0 36 -15 0 285 -16 129 -31 217 -38 222 -6
4 -37 5 -67 2 -41 -4 -78 1 -145 21 -275 78 -271 77 -445 81 -139 3 -176 1
-235 -15z"/>
<path d="M7213 4308 c-14 -18 -85 -602 -81 -668 2 -39 7 -56 18 -57 31 -6 43
18 66 132 36 177 92 272 186 319 l52 26 401 0 c299 0 404 -3 413 -12 9 -9 12
-274 12 -1130 0 -1243 5 -1156 -68 -1231 -41 -42 -122 -88 -192 -107 -25 -7
-85 -16 -135 -19 -84 -6 -90 -7 -93 -29 -8 -54 -33 -52 684 -52 589 0 664 2
678 16 38 38 10 64 -70 64 -89 0 -159 16 -239 54 -82 38 -130 83 -159 146 -21
45 -21 50 -21 1158 0 1102 0 1114 20 1128 17 13 82 14 425 12 393 -3 406 -4
445 -25 88 -47 142 -143 180 -323 23 -110 34 -133 65 -127 21 3 24 60 10 197
-15 156 -59 501 -66 523 -8 24 -47 21 -81 -7 -15 -12 -38 -28 -50 -35 -16 -8
-318 -11 -1141 -11 l-1120 0 -42 35 c-43 36 -80 45 -97 23z"/>
<path d="M842 4238 c-16 -16 -15 -43 1 -56 6 -5 53 -14 104 -20 106 -13 183
-42 219 -84 l25 -30 -3 -1117 -3 -1116 -22 -66 c-29 -83 -74 -146 -119 -165
-19 -8 -74 -18 -122 -22 -87 -7 -87 -7 -90 -36 -2 -16 2 -32 10 -37 17 -11
1009 -11 1026 0 8 5 12 21 10 37 -3 28 -4 29 -93 39 -179 23 -281 73 -325 160
l-25 50 1 993 c0 696 4 996 11 1003 7 7 17 8 26 3 7 -5 119 -126 247 -269 215
-240 352 -392 1010 -1120 129 -143 291 -323 360 -400 68 -77 174 -194 235
-260 60 -66 128 -139 150 -163 22 -24 44 -50 48 -58 24 -43 137 -61 157 -25 7
13 10 421 10 1251 0 1371 -6 1254 73 1327 59 55 133 91 220 109 83 18 87 20
87 43 0 41 -9 41 -536 39 l-509 -3 -3 -32 c-3 -29 0 -33 20 -33 13 -1 73 -7
133 -14 153 -18 183 -36 229 -136 52 -114 56 -195 56 -1059 0 -455 -4 -791 -9
-791 -14 0 -40 26 -192 195 -80 88 -316 349 -524 580 -209 230 -488 539 -619
685 -132 146 -287 317 -345 380 -58 64 -122 134 -142 156 -69 78 -44 74 -429
74 -256 0 -349 -3 -358 -12z"/>
<path d="M5325 4240 c-3 -5 -2 -25 3 -43 8 -28 -6 -76 -110 -372 -192 -551
-386 -1112 -604 -1750 -107 -310 -169 -421 -264 -470 -18 -9 -69 -24 -113 -34
-71 -15 -82 -21 -85 -40 -8 -52 -18 -51 512 -51 270 0 497 4 504 9 8 5 12 21
10 37 l-3 29 -96 7 c-107 7 -187 32 -260 79 -57 36 -79 63 -79 97 0 22 137
435 260 785 41 116 58 152 78 165 23 15 66 17 347 20 357 4 438 -1 465 -28 9
-9 34 -69 55 -131 21 -63 84 -243 141 -402 156 -431 156 -430 83 -499 -49 -46
-105 -63 -259 -78 -156 -15 -160 -16 -160 -45 0 -14 8 -29 19 -35 27 -14 1175
-14 1202 0 21 12 26 59 7 64 -252 71 -284 94 -370 275 -33 69 -77 176 -98 236
-21 61 -96 274 -168 475 -72 201 -171 480 -220 620 -50 140 -119 336 -155 435
-35 99 -99 279 -142 400 -43 121 -85 228 -93 238 -13 15 -37 17 -208 17 -116
0 -195 -4 -199 -10z m162 -432 c5 -7 24 -56 43 -108 18 -52 59 -167 91 -255
135 -370 169 -469 169 -486 0 -10 -9 -23 -19 -29 -21 -11 -567 -15 -595 -4 -9
3 -16 13 -16 22 0 23 270 823 286 850 16 25 27 28 41 10z"/>
<path d="M10128 4225 c-16 -36 -4 -44 94 -59 96 -14 137 -34 182 -89 l31 -39
0 -1141 c0 -1068 -1 -1145 -18 -1193 -31 -89 -100 -134 -215 -142 -66 -4 -73
-7 -78 -28 -14 -55 -23 -54 506 -54 526 0 516 -1 508 52 -3 21 -10 24 -78 30
-41 4 -87 11 -101 16 -43 17 -91 64 -113 112 -21 45 -21 53 -24 1090 -3 1087
1 1208 37 1283 27 56 86 94 160 102 87 10 116 20 119 39 9 46 10 46 -509 46
l-489 0 -12 -25z"/>
<path d="M11336 4234 c-9 -24 -7 -52 5 -60 6 -3 43 -13 82 -21 88 -18 178 -64
212 -108 13 -19 68 -141 121 -272 53 -131 124 -305 159 -388 58 -140 279 -674
470 -1140 45 -110 117 -283 159 -384 43 -102 96 -230 118 -285 56 -142 58
-144 171 -141 51 1 95 3 99 4 18 3 69 133 259 651 50 135 108 290 129 345 85
219 415 1120 465 1267 63 187 102 263 174 341 69 74 126 107 221 127 65 14 75
19 78 40 2 12 -2 27 -10 31 -7 5 -231 9 -499 9 -503 0 -509 0 -509 -41 0 -28
20 -36 144 -58 65 -12 131 -28 148 -37 16 -8 43 -36 59 -62 49 -76 58 -43
-221 -797 -45 -121 -99 -267 -120 -325 -21 -58 -77 -211 -125 -340 -48 -129
-111 -301 -140 -382 -68 -186 -71 -191 -95 -178 -10 5 -22 20 -26 32 -7 24
-144 359 -439 1073 -341 826 -337 813 -294 901 32 68 104 101 271 125 95 13
118 23 118 47 0 42 0 42 -601 42 -517 0 -577 -2 -583 -16z"/>
<path d="M14462 4238 c-19 -19 -14 -48 11 -57 12 -5 49 -12 82 -16 33 -3 78
-15 100 -24 50 -22 102 -80 110 -123 3 -18 5 -537 3 -1153 -3 -1047 -4 -1123
-21 -1165 -34 -86 -99 -129 -210 -139 -77 -7 -102 -25 -81 -58 10 -17 47 -18
499 -21 362 -2 491 1 502 10 8 6 13 23 11 37 -3 25 -7 26 -74 32 -118 11 -183
50 -221 134 -17 38 -18 105 -21 1100 -3 1097 0 1191 38 1269 26 55 86 93 159
101 87 10 116 20 119 39 9 46 10 46 -507 46 -365 0 -490 -3 -499 -12z"/>
<path d="M18778 4224 c-17 -36 4 -49 88 -58 119 -12 181 -53 209 -136 14 -42
15 -173 13 -1156 -4 -1192 -3 -1179 -54 -1235 -41 -46 -103 -72 -180 -77 -68
-4 -75 -7 -80 -28 -14 -55 -22 -54 500 -54 519 0 522 0 514 51 -3 22 -8 24
-79 30 -137 11 -221 80 -234 193 -3 28 -5 544 -3 1146 l3 1095 30 60 c17 32
41 67 56 78 14 10 65 24 119 33 106 17 110 19 110 43 0 41 -5 41 -512 41
l-488 0 -12 -26z"/>
<path d="M20117 4243 c-11 -10 -8 -51 4 -59 6 -4 59 -17 118 -29 58 -13 122
-29 141 -37 52 -22 101 -67 121 -113 18 -38 19 -94 19 -1133 0 -790 -3 -1106
-11 -1139 -16 -62 -70 -117 -135 -136 -30 -9 -119 -18 -210 -22 -88 -4 -165
-12 -171 -17 -18 -15 -16 -65 3 -72 9 -3 503 -6 1098 -6 886 0 1085 2 1100 13
16 12 23 55 48 308 32 329 33 382 5 387 -26 5 -57 -26 -57 -57 0 -45 -29 -142
-65 -219 -42 -90 -119 -173 -194 -209 l-56 -28 -436 0 -436 0 -36 28 c-23 17
-40 41 -47 65 -7 25 -10 202 -8 542 l3 505 360 3 c423 3 448 0 511 -63 49 -50
84 -144 84 -229 0 -29 5 -57 12 -64 18 -18 46 -14 58 7 12 24 14 819 1 839 -5
8 -21 12 -37 10 -28 -3 -29 -6 -36 -64 -13 -121 -72 -210 -155 -234 -25 -7
-165 -10 -418 -8 l-380 3 0 520 0 520 424 3 c262 1 437 -2 461 -8 92 -25 158
-114 185 -252 8 -40 20 -99 26 -131 12 -60 35 -85 66 -72 14 5 15 24 9 158
-13 285 -23 442 -30 459 -4 9 -21 21 -38 27 -34 12 -1890 16 -1901 4z"/>
</g>
</svg>
