<?xml version="1.0" encoding="UTF-8"?>
<svg width="1200pt" height="1200pt" version="1.1" viewBox="0 0 1200 1200" xmlns="http://www.w3.org/2000/svg">
 <path d="m600.16 241.09-72.746 29.285 6.0898 15.102-72.75 29.285 6.043 15.102v0.046875l-0.26562 0.046875-72.648 29.234 6.0938 15.051-0.26562 0.10938-72.598 29.234 6.043 15.051-0.35938 0.26172-72.441 29.129 6.0391 15.051-0.37109 0.21094-72.543 29.129 6.0391 15.051-0.44531 0.30859-72.242 29.078 6.043 15-0.625 0.35938-72.238 29.027 51.707 79.047 32.715-21.758 89.695-59.641v380.02h57.898v-418.57l131.06-87.133 176.83-117.65 177.59 118.11 130.7 226.34v278.91h57.902v-379.82l89.332 59.438 32.668 21.758 51.859-79.047-72.59-29.18-0.26562-0.15625 6.0938-15.051-72.547-29.18-0.26562-0.15625 6.0938-15.102-72.746-29.234v-0.046875l6.0898-15.102-72.648-29.18-0.26562-0.15625 6.0938-15.102-72.75-29.285 6.0898-15.102-72.75-29.285 6.043-15.152-72.801-29.285 6.0898-15.102-72.801-29.285zm-177.04 212.1-54.367 36.195-76.641 132.7v58.004l131-226.9zm408.8 36.605 76.332 50.785v81.402zm-337.12 124.1c-15.695 0-30.746 6.2383-41.848 17.336-11.098 11.098-17.332 26.148-17.332 41.844 0.042968 14.516 5.418 28.512 15.105 39.32-12.195 0.38672-24.016 4.3008-34.031 11.273-10.012 6.9688-17.789 16.691-22.391 27.992-21.449 50.707-33.379 106.52-33.379 164.8v42.441h126.14v-42.441c0-41.238 8.2734-80.184 23.293-115.7l0.003906 0.003906c4.9766-11.348 6.5-23.914 4.375-36.125-2.1211-12.207-7.793-23.523-16.305-32.527 15.031-0.92578 29.145-7.5469 39.465-18.512 10.32-10.969 16.07-25.457 16.082-40.52 0-15.695-6.2344-30.75-17.336-41.848-11.098-11.098-26.152-17.332-41.848-17.332zm210.77 0c-7.6211 0.023438-15.164 1.5195-22.219 4.4023-0.55078 0.21484-1.0781 0.43359-1.5977 0.67188-3.0469 1.3555-5.9766 2.9648-8.7539 4.8125-0.26562 0.15625-0.44531 0.26562-0.66016 0.40625v0.003906c-2.8672 1.9609-5.5586 4.168-8.0391 6.6016-0.26562 0.23828-0.50391 0.43359-0.70703 0.66016-2.3672 2.4062-4.5234 5.0078-6.4492 7.7812-0.28906 0.42188-0.57422 0.85156-0.86328 1.2773v0.003906c-1.8984 2.8711-3.543 5.9023-4.9141 9.0586 0 0.28906-0.26563 0.57422-0.37109 0.86328v0.003906c-1.25 3.0352-2.2422 6.168-2.9727 9.3672-0.26563 0.78125-0.37109 1.5586-0.52734 2.3555-0.69531 3.5938-1.0586 7.2422-1.0781 10.902 0.007812 3.8164 0.38672 7.6211 1.1289 11.367 0.011719 0-0.003906 0.13281 0 0.15625 0.67188 3.2305 1.6172 6.3984 2.8164 9.4688 0.26562 0.60156 0.42188 1.2031 0.66016 1.793 1.2266 2.8945 2.6836 5.6836 4.3516 8.3477 0.26562 0.40625 0.46875 0.82812 0.70703 1.2305l0.003907-0.003907c1.8242 2.7617 3.8789 5.3672 6.1406 7.7812 0.26563 0.23828 0.44531 0.48047 0.66016 0.71875v0.003907c2.1836 2.2852 4.5469 4.3906 7.0664 6.2969 0.625 0.46875 1.2578 0.88672 1.8867 1.332 2.4414 1.707 5.0078 3.2305 7.6797 4.5547 0.60156 0.28906 1.1758 0.55078 1.7812 0.81641 2.8789 1.3125 5.8555 2.3906 8.9062 3.2266 0.44531 0.13281 0.92578 0.17969 1.3906 0.3125 3.4219 0.85547 6.918 1.4023 10.441 1.6367-1.9375 2.0625-3.7344 4.25-5.3789 6.5508-0.33594 0.46875-0.66016 0.96094-0.97266 1.4336v0.003906c-3.2031 4.7188-5.7539 9.8516-7.5781 15.254 0 0.38281-0.26562 0.78125-0.37109 1.1758-0.74609 2.3008-1.3594 4.6445-1.8359 7.0156 0 0.49219-0.26562 0.98438-0.3125 1.4844-0.41016 2.5586-0.66016 5.1406-0.75391 7.7305v2.5625-0.003906c0.007812 2.0195 0.10937 4.0352 0.3125 6.043 0 0.71875 0 1.4375 0.26562 2.1484h-0.003906c0.34375 2.5547 0.84375 5.082 1.4961 7.5781 0.26562 0.81641 0.46875 1.6016 0.70703 2.4062v-0.003906c0.70703 2.4766 1.5664 4.9023 2.5703 7.2734 15.023 35.52 23.293 74.465 23.293 115.7v42.441h126.14v-42.441c0-22.059-2.2266-43.605-5.5273-64.812-10.973-79.68-39.547-180.43-86.363-220.29l-0.003907-0.003907c-11.109-11.176-26.223-17.461-41.98-17.457zm-105.52 200.94c-11.016 0.015624-21.574 4.4023-29.359 12.195-7.7852 7.7969-12.156 18.359-12.156 29.375 0 2.75 0.27344 5.4961 0.81641 8.1914 1.8086-1.8828 3.7266-3.4805 6.1484-3.4805 7.0391 0 10.266 12.133 17.301 12.133 7.0312 0 10.215-12.133 17.25-12.133 7.0391 0 10.219 12.133 17.254 12.133 7.0312 0 10.266-12.133 17.305-12.133 2.4375 0 4.3594 1.625 6.1953 3.5312 0.54688-2.7109 0.82031-5.4727 0.81641-8.2422 0-11.023-4.3789-21.598-12.176-29.395s-18.371-12.176-29.395-12.176zm-69.059 58.672c-4.0195 0-6.8359 3.8711-9.7812 7.2695l25.855 78.125h106.02l25.801-78.125c-2.9453-3.3984-5.707-7.2695-9.7227-7.2695-7.0391 0-10.219 12.133-17.254 12.133-7.0352 0-10.223-12.133-17.254-12.133-7.0352 0-10.324 12.133-17.355 12.133-7.0352 0-10.215-12.133-17.254-12.133-7.0352 0-10.219 12.133-17.25 12.133-7.0352 0-10.266-12.133-17.305-12.133-7.0312 0-10.219 12.133-17.258 12.133-7.0312 0-10.211-12.133-17.25-12.133z"/>
</svg>
